<?xml version="1.0" encoding="UTF-8"?>
<svg xmlns="http://www.w3.org/2000/svg" id="Layer_3" viewBox="0 0 600 1200">
  <defs>
    <style>.cls-1{fill:none;}.cls-2{fill:#fff;}.cls-3{fill:#18681f;}</style>
  </defs>
  <g>
    <g>
      <path class="cls-3" d="M421.18,376.01l1.42-.19c1.73-.23,3.37-.33,4.91-.33,26.51,0,26.81,31.13,26.81,31.44v39.25s12.03,3.51,12.03,3.51v14.66c5.82,2.47,33.3,15.8,39.81,48.91l6.46-.81c-.09,0,.98-.38,2.36-.38,1.98,0,3.69,.76,4.96,2.2,2.34,2.68,3.02,7.44,2.06,14.54-2.47,18.29-3.99,38.81-4,39.01l-.05,.66-5.02,4.52-4.49,48.43-.86,1.19c-1.3,11.18-2.58,22.37-3.72,33.57-2.42,23.79-4.39,47.51-5.87,70.5l1.91,1.58c8.68,7.5,16.64,15.75,23.66,24.53,7.09,8.88,13.31,18.22,18.5,27.78,4.82,8.89,9.07,18.61,12.62,28.88,3.07,8.89,5.49,18.14,7.19,27.48,1.71,9.41,2.76,18.88,3.12,28.13,.32,8.31,.08,16.57-.72,24.56-.87,8.72-2.16,16.41-3.94,23.5-1.73,6.9-4,13.51-6.76,19.66-2.5,5.57-5.53,10.59-9.01,14.91-3.29,4.09-7,7.22-10.73,9.07-3.45,1.7-6.93,2.57-10.35,2.57h0c-1.71,0-3.43-.22-5.11-.65-5.75-1.46-10.21-5.43-12.93-8.49-3.8-4.27-7.03-9.62-9.89-16.35-3.24-7.62-5.86-16.01-8.03-25.65-2.32-10.34-4.11-21.74-5.63-35.86-1.48-13.8-2.43-28.7-2.88-45.54-.47-17.82-.37-36.63,.33-57.52,.37-11.04,.91-22.62,1.6-34.42-1.59-1.22-3.18-2.44-4.8-3.6-6.75-4.85-14.06-9.44-21.76-13.67l.03,271.33h-33.14s-.08-612.9-.08-612.9Zm88.31,548.21c1.29,3.17,2.61,5.91,4.03,8.39,.64,1.11,1.32,2.19,2.03,3.25,.46,.6,.82,1.05,1.18,1.49,.66,.78,1.37,1.54,2.12,2.24l.87,.68c.56,.39,1.13,.71,1.72,1.03,.29,.12,.61,.23,.92,.32l.2,1.72,.5-1.56,1.54-.05s1.18-.37,1.51-.5c.67-.37,1.17-.64,1.66-.96,.35-.23,.69-.47,1.02-.72,1.32-1.27,2.67-2.56,3.88-4.07l.92-1.19c.75-1.09,1.38-2.1,1.98-3.12,1.25-2.12,2.46-4.48,3.6-7.01l1.1-2.57,.31-.81c.39-1.05,.78-2.1,1.14-3.16,2.01-5.93,3.62-12.43,4.81-19.33,.3-1.73,.56-3.47,.8-5.21l.7,.09-.69-.11,.46-4.01c.38-3.89,.63-7.79,.74-11.69,.24-8.2-.1-16.57-1-24.88l-.18-1.62-.42-3.12c-.32-2.18-.68-4.35-1.07-6.52-.81-4.45-1.8-8.92-2.93-13.29-1.17-4.48-2.51-8.96-4-13.3-.6-1.74-1.24-3.45-1.88-5.16l-.5-1.35-.86-2.12c-.45-1.1-.91-2.18-1.39-3.27-4-9.13-8.79-17.95-14.24-26.23-.72-1.09-3.06-4.5-3.06-4.5l.81-1.67-1.32,.96c-1.54-2.12-3.13-4.21-4.76-6.25-3.34-4.19-6.95-8.32-10.72-12.25-1.37-1.43-2.8-2.77-4.25-4.1-.92,18.39-1.4,33.8-1.52,48.22-.15,18.72,.23,35.45,1.15,51.15,.43,7.33,.99,14.44,1.67,21.12l.82,7.46-1.54,.88,1.62-.21c.38,2.92,.77,5.83,1.21,8.74,1.72,11.28,3.69,20.47,6.2,28.93,.57,1.93,1.18,3.84,1.84,5.74l.92,2.56-1.14,1.54,1.51-.62Zm-55.13-226.15c5.18,2.57,9.78,5.05,14.05,7.57,4.7,2.76,9.37,5.76,13.91,8.94l.21-3.12c.29-4.37,.59-8.73,.94-13.09,1.78-22.11,4.17-46.09,7.3-73.29l-4.09-.99c.77,3.18,1.39,8.39-1.18,12.45-2.11,3.32-5.85,5.16-11.14,5.47-12.27,.73-17.94,1.97-20.01,2.55v53.51Zm0-70.52c3.27,1.01,10.1,2.99,13.71,2.99,1.02,0,1.32-.17,1.32-.17-.25-1.92-5.35-10.07-8.97-15.1l-.39-.54,10.02-65.68-5.19-7.47,1.6-.87c7.47-4.04,18.39-10.94,19.28-13.63,1.27-3.78,5.11-6.55,7.11-7.77-2-6.1-11.5-32.92-25.56-38.16l-.44,16.43,.56,13.85-13.09,2.37,.02,113.77Zm34.18-19.36c.13,.1,.56,.35,1.01,.35,1.59,0,3.68-3.49,4.37-13.32,.58-8.22,1.26-14.93,1.85-19.96-2.17,3.64-7.69,12.12-21.77,32.56h14.1s.44,.36,.44,.36Zm-15.23-15.05l12.08-17.28-8.86-8.86-3.22,26.13Zm17.03-29.89c3.49,3.82,5.19,5.97,6.03,7.23,.27-2.05,.51-3.59,.66-4.58l-6.69-2.65Z"></path>
      <g>
        <path class="cls-1" d="M488.99,626.32l-.21-.05c.04,.3,.08,.62,.11,.94,.03-.29,.07-.59,.1-.88Z"></path>
        <path class="cls-1" d="M474.46,643.63c-10.31,.61-15.87,1.59-18.48,2.19v51.24c4.85,2.43,9.2,4.78,13.26,7.17,3.92,2.3,7.82,4.78,11.65,7.38v-.18c.31-4.4,.6-8.8,.96-13.19,1.56-19.3,3.57-40.01,6.14-63.02-.29,.75-.66,1.48-1.11,2.19-2.4,3.79-6.58,5.88-12.42,6.22Z"></path>
        <path class="cls-1" d="M487.5,606.2h.94s.91,.76,.91,.76c.02-.01,2.19-1.33,2.93-11.85,.34-4.89,.72-9.23,1.09-13-3.19,4.89-8.25,12.4-16.28,24.09h10.41Z"></path>
        <polygon class="cls-1" points="477.73 570.52 475.72 586.83 483.26 576.05 477.73 570.52"></polygon>
        <path class="cls-1" d="M458.32,615.14l.2-1.32,9.82-64.38-3.78-5.44-2.08-2.99,3.21-1.73c9.12-4.94,17.61-10.78,18.51-12.72,1.23-3.67,4.44-6.4,6.72-7.95-3.31-9.92-11.57-29.03-22.07-34.94l-.38,13.72,.5,12.54,.11,2.83-2.79,.51-10.35,1.87v111.2c3.85,1.15,8.08,2.22,10.86,2.49-1.32-2.92-4.39-7.99-7.73-12.61l-.78-1.08Z"></path>
        <path class="cls-1" d="M545.84,891.97l.05-.38h0c.11-.91,.2-1.81,.29-2.72,.37-3.79,.62-7.68,.73-11.57,.24-8.13-.1-16.42-.99-24.65l-.18-1.63c-.13-1.02-.27-2.04-.42-3.05-.31-2.16-.67-4.31-1.06-6.46-.81-4.42-1.78-8.85-2.91-13.17-1.15-4.43-2.49-8.86-3.97-13.17-.59-1.73-1.23-3.43-1.87-5.14l-.47-1.26-.19-.47-.68-1.67c-.45-1.08-.91-2.16-1.38-3.23-3.95-9.04-8.7-17.78-14.11-25.98-.71-1.08-1.43-2.15-2.17-3.21l-.98-1.41-.38-.53c-1.53-2.1-3.1-4.17-4.72-6.19-3.33-4.17-6.9-8.25-10.62-12.14-.53-.55-1.07-1.09-1.61-1.62-.81,16.83-1.24,31.15-1.35,44.62-.15,18.66,.23,35.35,1.15,51.04,.44,7.44,.98,14.33,1.66,21.06,.17,1.64,.34,3.27,.52,4.9l.29,2.54,.08,.65c.38,2.91,.77,5.81,1.21,8.71,1.71,11.19,3.66,20.32,6.15,28.71,.56,1.9,1.17,3.79,1.82,5.66,.29,.84,.6,1.68,1.02,2.8l.24,.61c1.26,3.09,2.55,5.77,3.94,8.2,.62,1.08,1.28,2.12,2.03,3.22,.33,.43,.67,.86,1.02,1.27,.63,.74,1.29,1.45,2.17,2.26,.17,.13,.34,.27,.52,.39,.45,.31,.91,.57,1.53,.91,.2,.07,.41,.14,.62,.2l.31,.07h.34c.26,0,.51,0,.77-.01,.15-.03,.29-.07,.43-.11,.23-.07,.46-.14,.68-.23l.15-.08c.46-.25,.93-.49,1.37-.79,.28-.19,.56-.38,.87-.62,1.32-1.27,2.56-2.47,3.66-3.84,.31-.39,.61-.78,.92-1.2,.65-.95,1.26-1.92,1.85-2.92,1.23-2.08,2.41-4.38,3.51-6.85,.28-.62,.54-1.23,.8-1.86l.32-.78,.23-.62c.39-1.05,.78-2.09,1.14-3.15,1.98-5.85,3.58-12.27,4.75-19.09,.29-1.71,.55-3.43,.79-5.16l2.95,.38-2.91-.6,.09-.66Z"></path>
        <path class="cls-1" d="M560.25,837.22c-1.68-9.27-4.07-18.39-7.13-27.24-3.42-9.9-7.57-19.52-12.51-28.63-5.3-9.77-11.5-18.98-18.34-27.54-7.09-8.88-14.98-17-23.45-24.31-.83-.72-1.69-1.38-2.52-2.09,1.52-23.84,3.51-47.64,5.93-71.4,1.16-11.35,2.46-22.69,3.77-34.02l.85-1.17,4.51-48.62,5.01-4.51s1.5-20.56,4.01-39.11c1.74-12.94-2.62-14.9-5.4-14.9-1.2,0-2.12,.36-2.12,.36l-8.02,1.01c-6.53-37.59-40.12-49.62-40.12-49.62v-14.53s-12.02-3.51-12.02-3.51h0s0-40.47,0-40.47c0,0,0-29.81-25.19-29.81-1.48,0-3.04,.1-4.7,.32l.08,609.85h29.88s-.03-272.44-.03-272.44c8.39,4.47,16.54,9.48,24.34,15.08,1.87,1.34,3.7,2.75,5.52,4.16-.7,11.74-1.26,23.49-1.65,35.24-.64,19.13-.84,38.28-.33,57.42,.4,15.17,1.25,30.34,2.87,45.41,1.29,11.98,2.97,23.95,5.6,35.68,1.95,8.69,4.48,17.23,7.94,25.36,2.44,5.75,5.54,11.32,9.61,15.9,3.26,3.67,7.47,6.82,12.11,8,1.59,.4,3.16,.6,4.72,.6,3.3,0,6.52-.86,9.62-2.4,3.91-1.94,7.37-5.13,10.18-8.63,3.53-4.39,6.44-9.32,8.79-14.55,2.78-6.21,5-12.73,6.66-19.39,1.91-7.62,3.11-15.43,3.9-23.27,.81-8.08,1.03-16.22,.71-24.34-.36-9.36-1.42-18.71-3.09-27.9Zm-64.71-241.89c-.88,12.57-3.92,14.84-6,14.84-1.17,0-2.03-.72-2.03-.72h-16.62s24.65-35.73,24.65-37.12c0-1.38-11.35-13.28-11.35-13.28l14.67,5.81s-1.93,10.8-3.31,30.46Zm-24.65,4.11l4.42-35.96,12.19,12.19-16.61,23.77Zm-18.18-87.03l13.03-2.36-.5-12.54,.5-18.55c18.05,4.02,29.08,41.1,29.08,41.1,0,0-6.01,3.01-7.52,7.52-1.51,4.52-20.05,14.55-20.05,14.55l4.52,6.51-10.02,65.66s9.03,12.52,9.03,16.54c0,.95-1.07,1.31-2.7,1.31-4.3,0-12.5-2.51-15.34-3.42v-116.32Zm32.38,186.08c-.51,6.36-.9,12.73-1.35,19.09-5.24-3.77-10.62-7.29-16.16-10.55-4.86-2.86-9.83-5.48-14.86-7.96v-55.7s4.5-1.99,21.54-3c17.04-1.01,10.03-18.55,10.03-18.55l8.27,2.01c-2.87,24.84-5.45,49.72-7.46,74.66Zm64.32,190.69c-.09,.93-.19,1.85-.3,2.78,0,.05-.02,.12-.02,.19,.02-.16,.04-.29,.07-.5-.06,.47-.12,.94-.18,1.4,0,.04-.01,.08-.02,.12-.01,.08-.02,.13-.02,.13s0,0,0-.02c-.24,1.76-.51,3.52-.81,5.27-1.14,6.65-2.72,13.23-4.87,19.58-.44,1.3-.92,2.57-1.4,3.86-.12,.3-.24,.6-.37,.9-.27,.65-.55,1.29-.84,1.93-1.1,2.46-2.32,4.87-3.68,7.18-.62,1.05-1.28,2.09-1.96,3.1-.03,.04-.06,.08-.08,.12-.33,.43-.65,.86-.99,1.28-1.26,1.57-2.65,2.91-4.08,4.28-.03,.02-.06,.05-.09,.07-.36,.27-.73,.53-1.1,.78-.64,.42-1.31,.77-1.97,1.13-.37,.14-.74,.27-1.12,.38-.3,.09-.6,.15-.89,.22-.41,.02-.81,.04-1.22,.04-.25,0-.5,0-.75-.02-.26-.06-.53-.11-.79-.18-.37-.1-.73-.23-1.08-.36-.7-.38-1.39-.76-2.05-1.22-.27-.19-.53-.39-.79-.6-.09-.08-.18-.16-.27-.24-.79-.74-1.54-1.54-2.25-2.38-.39-.46-.76-.93-1.13-1.4-.06-.07-.11-.15-.16-.22-.73-1.09-1.44-2.2-2.1-3.35-1.57-2.74-2.92-5.63-4.13-8.58-.09-.22-.18-.45-.27-.67-.04-.1-.08-.2-.11-.3-.32-.86-.63-1.73-.94-2.6-.67-1.92-1.28-3.86-1.86-5.81-2.82-9.5-4.74-19.3-6.25-29.14-.45-2.92-.84-5.85-1.22-8.78-.03-.23-.06-.46-.08-.69-.1-.85-.2-1.7-.3-2.55-.19-1.65-.36-3.29-.53-4.94-.71-7.05-1.25-14.12-1.67-21.19-1.01-17.06-1.3-34.17-1.16-51.26,.14-17.27,.8-34.53,1.7-51.77,2.3,2.17,4.68,4.25,6.87,6.54,3.78,3.94,7.39,8.06,10.82,12.36,1.65,2.06,3.25,4.17,4.81,6.31,.13,.18,.26,.36,.39,.54,.34,.49,.68,.97,1.02,1.46,.75,1.08,1.48,2.17,2.21,3.27,5.5,8.34,10.32,17.21,14.37,26.47,.48,1.09,.95,2.19,1.4,3.29,.23,.57,.47,1.13,.69,1.7,.06,.16,.13,.32,.19,.48,.81,2.18,1.64,4.35,2.4,6.55,1.51,4.41,2.86,8.89,4.04,13.41,1.15,4.42,2.14,8.9,2.96,13.4,.4,2.18,.76,4.37,1.08,6.57,.15,1.03,.29,2.06,.42,3.1,0,.02,0,.04,0,.06,.06,.55,.13,1.1,.19,1.64,.91,8.32,1.25,16.72,1.01,25.1-.12,3.94-.36,7.88-.75,11.8Z"></path>
        <path class="cls-2" d="M470.89,599.45l16.61-23.77-12.19-12.19-4.42,35.96Zm6.84-28.93l5.53,5.53-7.54,10.78,2.01-16.31Z"></path>
        <path class="cls-2" d="M548.98,850.65s0-.04,0-.06c-.14-1.03-.27-2.07-.42-3.1-.32-2.2-.68-4.39-1.08-6.57-.82-4.51-1.81-8.98-2.96-13.4-1.18-4.53-2.52-9-4.04-13.41-.76-2.2-1.59-4.37-2.4-6.55-.06-.16-.13-.32-.19-.48-.23-.57-.46-1.14-.69-1.7-.46-1.1-.92-2.2-1.4-3.29-4.05-9.26-8.87-18.13-14.37-26.47-.72-1.1-1.46-2.19-2.21-3.27-.34-.49-.68-.97-1.02-1.46-.13-.18-.26-.36-.39-.54-1.56-2.14-3.16-4.25-4.81-6.31-3.43-4.3-7.04-8.42-10.82-12.36-2.2-2.29-4.57-4.37-6.87-6.54-.89,17.24-1.56,34.5-1.7,51.77-.14,17.09,.15,34.2,1.16,51.26,.42,7.08,.96,14.14,1.67,21.19,.17,1.65,.34,3.3,.53,4.94,.1,.85,.19,1.7,.3,2.55,.03,.23,.05,.46,.08,.69,.38,2.93,.77,5.86,1.22,8.78,1.5,9.84,3.43,19.64,6.25,29.14,.58,1.95,1.2,3.89,1.86,5.81,.3,.87,.61,1.73,.94,2.6,.04,.1,.08,.2,.11,.3,.09,.22,.18,.45,.27,.67,1.21,2.95,2.56,5.84,4.13,8.58,.66,1.15,1.36,2.26,2.1,3.35,.05,.07,.11,.15,.16,.22,.36,.48,.74,.95,1.13,1.4,.71,.84,1.46,1.64,2.25,2.38,.09,.08,.18,.16,.27,.24,.26,.2,.52,.41,.79,.6,.66,.46,1.35,.83,2.05,1.22,.36,.13,.72,.26,1.08,.36,.26,.07,.52,.13,.79,.18,.25,.01,.5,.02,.75,.02,.41,0,.81-.01,1.22-.04,.3-.07,.6-.14,.89-.22,.38-.11,.75-.24,1.12-.38,.67-.36,1.34-.7,1.97-1.13,.37-.25,.74-.51,1.1-.78,.03-.02,.06-.05,.09-.07,1.43-1.37,2.82-2.71,4.08-4.28,.34-.42,.66-.85,.99-1.28,.03-.04,.06-.08,.08-.12,.69-1.01,1.34-2.04,1.96-3.1,1.36-2.31,2.58-4.71,3.68-7.18,.29-.64,.56-1.28,.84-1.93,.12-.3,.25-.6,.37-.9,.48-1.28,.96-2.56,1.4-3.86,2.15-6.35,3.73-12.93,4.87-19.58,.3-1.75,.57-3.51,.81-5.27,0,.01,0,.02,0,.02s0-.05,.02-.13c0-.04,.01-.08,.02-.12,.06-.47,.12-.94,.18-1.4-.03,.21-.05,.34-.07,.5,0-.06,.02-.13,.02-.19,.11-.93,.21-1.85,.3-2.78,.39-3.92,.63-7.86,.75-11.8,.25-8.38-.1-16.77-1.01-25.1-.06-.55-.12-1.1-.19-1.64Zm-3.26,42.2c-.23,1.72-.5,3.44-.79,5.16-1.17,6.81-2.77,13.24-4.75,19.09-.36,1.06-.75,2.1-1.14,3.15l-.23,.62-.32,.78c-.26,.62-.53,1.24-.8,1.86-1.1,2.47-2.29,4.77-3.51,6.85-.59,.99-1.2,1.97-1.85,2.92-.31,.42-.61,.81-.92,1.2-1.1,1.37-2.34,2.57-3.66,3.84-.32,.24-.59,.43-.87,.62-.45,.3-.91,.54-1.37,.79l-.15,.08c-.23,.08-.45,.16-.68,.23-.14,.04-.28,.08-.43,.11-.26,.01-.51,.02-.77,.02h-.34s-.31-.08-.31-.08c-.21-.06-.41-.13-.62-.2-.62-.34-1.08-.6-1.53-.91-.18-.13-.35-.26-.52-.39-.88-.81-1.54-1.52-2.17-2.26-.35-.41-.69-.84-1.02-1.27-.74-1.09-1.41-2.14-2.03-3.22-1.39-2.43-2.68-5.11-3.94-8.2l-.24-.61c-.42-1.12-.72-1.96-1.02-2.8-.65-1.87-1.25-3.76-1.82-5.66-2.49-8.39-4.44-17.51-6.15-28.71-.44-2.9-.83-5.8-1.21-8.71l-.08-.65-.29-2.54c-.18-1.63-.36-3.27-.52-4.9-.68-6.73-1.22-13.61-1.66-21.06-.93-15.69-1.3-32.38-1.15-51.04,.11-13.47,.54-27.79,1.35-44.62,.55,.53,1.08,1.07,1.61,1.62,3.72,3.88,7.3,7.97,10.62,12.14,1.62,2.03,3.19,4.09,4.72,6.19l.38,.53,.98,1.41c.73,1.06,1.46,2.13,2.17,3.21,5.4,8.2,10.15,16.95,14.11,25.98,.47,1.07,.93,2.15,1.38,3.23l.68,1.67,.19,.47,.47,1.26c.64,1.71,1.28,3.41,1.87,5.14,1.48,4.31,2.82,8.74,3.97,13.17,1.12,4.32,2.1,8.75,2.91,13.17,.39,2.14,.74,4.3,1.06,6.46,.15,1.02,.28,2.03,.42,3.05l.18,1.63c.89,8.23,1.23,16.52,.99,24.65-.11,3.89-.36,7.78-.73,11.57-.09,.91-.19,1.82-.29,2.72h0s-.05,.38-.05,.38l-.09,.66,2.91,.6-2.95-.38Z"></path>
        <path class="cls-2" d="M566.6,865c-.36-9.33-1.42-18.87-3.14-28.36-1.71-9.42-4.15-18.75-7.25-27.72-3.57-10.34-7.86-20.14-12.73-29.12-5.23-9.64-11.51-19.07-18.66-28.02-7.07-8.85-15.1-17.18-23.86-24.74-.43-.37-.86-.72-1.29-1.08,1.47-22.76,3.42-46.17,5.81-69.6,1.16-11.37,2.44-22.58,3.67-33.13l.35-.48,.53-.72,.08-.89,4.4-47.35,4.06-3.65,.98-.88,.1-1.31c.02-.2,1.53-20.68,3.99-38.91,1.02-7.6,.22-12.77-2.45-15.83-1.58-1.81-3.72-2.76-6.18-2.76-1.23,0-2.26,.25-2.85,.43l-4.67,.59c-6.88-31.61-31.87-44.85-39.47-48.19v-12.34s0-2.44,0-2.44l-2.35-.69-9.68-2.83v-38.03c0-11.44-5.96-33.07-28.45-33.07-1.64,0-3.36,.12-5.12,.35l-2.84,.37v2.86s.08,609.85,.08,609.85v3.26s3.26,0,3.26,0h29.88s3.26,0,3.26,0v-3.26s-.03-266.92-.03-266.92c6.76,3.81,13.19,7.91,19.18,12.22,1.37,.99,2.72,2.01,4.07,3.04-.67,11.56-1.19,22.85-1.55,33.6-.7,20.93-.8,39.77-.33,57.62,.45,16.87,1.39,31.81,2.88,45.68,1.53,14.2,3.33,25.65,5.66,36.04,2.19,9.72,4.84,18.2,8.12,25.92,2.92,6.89,6.25,12.38,10.17,16.79,2.88,3.24,7.6,7.43,13.74,8.99,1.82,.46,3.67,.7,5.52,.7,3.67,0,7.4-.92,11.07-2.74,4-1.98,7.8-5.18,11.28-9.51,3.57-4.44,6.67-9.57,9.23-15.26,2.79-6.23,5.1-12.93,6.85-19.93,1.8-7.17,3.1-14.94,3.98-23.74,.81-8.07,1.05-16.41,.73-24.79Zm-3.97,24.46c-.79,7.84-1.99,15.65-3.9,23.27-1.67,6.66-3.88,13.18-6.66,19.39-2.35,5.23-5.26,10.16-8.79,14.55-2.81,3.49-6.27,6.69-10.18,8.63-3.11,1.54-6.33,2.4-9.62,2.4-1.56,0-3.13-.19-4.72-.6-4.64-1.18-8.85-4.32-12.11-8-4.07-4.58-7.17-10.16-9.61-15.9-3.46-8.14-5.99-16.67-7.94-25.36-2.64-11.73-4.31-23.7-5.6-35.68-1.62-15.08-2.46-30.25-2.87-45.41-.51-19.14-.31-38.29,.33-57.42,.39-11.75,.95-23.5,1.65-35.24-1.83-1.41-3.65-2.82-5.52-4.16-7.8-5.6-15.95-10.6-24.34-15.08l.03,272.44h-29.88s-.08-609.84-.08-609.84c1.66-.22,3.22-.32,4.7-.32,25.18,0,25.19,29.81,25.19,29.81v40.47s0,0,0,0l12.02,3.51v14.53s33.59,12.03,40.12,49.62l8.02-1.01s.91-.36,2.12-.36c2.79,0,7.14,1.95,5.4,14.9-2.51,18.55-4.01,39.11-4.01,39.11l-5.01,4.51-4.51,48.62-.85,1.17c-1.32,11.33-2.62,22.67-3.77,34.02-2.42,23.75-4.41,47.56-5.93,71.4,.84,.7,1.7,1.37,2.52,2.09,8.47,7.32,16.36,15.44,23.45,24.31,6.84,8.56,13.04,17.77,18.34,27.54,4.94,9.11,9.09,18.73,12.51,28.63,3.06,8.85,5.44,17.97,7.13,27.24,1.67,9.19,2.73,18.55,3.09,27.9,.31,8.12,.09,16.26-.71,24.34Z"></path>
        <path class="cls-2" d="M495.54,572.34c0,1.38-24.65,37.12-24.65,37.12h16.62s.86,.72,2.03,.72c2.08,0,5.12-2.27,6-14.84,1.38-19.66,3.31-30.46,3.31-30.46l-14.67-5.81s11.35,11.9,11.35,13.28Zm-3.25,22.76c-.74,10.52-2.91,11.84-2.93,11.85l-.91-.76h-.94s-10.41,0-10.41,0c8.04-11.69,13.1-19.2,16.28-24.09-.37,3.77-.75,8.11-1.09,13Z"></path>
        <path class="cls-2" d="M474.27,640.38c-17.04,1.01-21.55,3-21.55,3v55.7c5.04,2.48,10.01,5.1,14.87,7.96,5.54,3.26,10.93,6.78,16.16,10.55,.44-6.37,.83-12.74,1.35-19.09,2.01-24.94,4.59-49.82,7.46-74.66l-8.27-2.01s7.02,17.54-10.03,18.55Zm14.72-14.06c-.03,.3-.07,.59-.1,.88-.03-.32-.07-.63-.11-.94l.21,.05Zm-1.01,8.89c-2.56,23.01-4.58,43.72-6.14,63.02-.35,4.39-.65,8.79-.95,13.19v.18c-3.84-2.6-7.74-5.08-11.66-7.38-4.06-2.39-8.41-4.74-13.25-7.17v-51.24c2.61-.6,8.16-1.58,18.47-2.19,5.84-.34,10.01-2.44,12.42-6.22,.45-.71,.81-1.44,1.11-2.19Z"></path>
        <path class="cls-2" d="M470.77,630.85c0-4.02-9.03-16.54-9.03-16.54l10.02-65.66-4.52-6.51s18.55-10.03,20.05-14.55c1.51-4.5,7.52-7.52,7.52-7.52,0,0-11.04-37.08-29.08-41.1l-.5,18.55,.5,12.54-13.03,2.36v116.32c2.86,.91,11.06,3.42,15.36,3.42,1.63,0,2.7-.36,2.7-1.31Zm-14.79-4.51v-111.2s10.33-1.87,10.33-1.87l2.79-.51-.11-2.83-.5-12.54,.38-13.72c10.5,5.91,18.75,25.02,22.07,34.94-2.29,1.55-5.5,4.28-6.72,7.95-.9,1.94-9.39,7.78-18.51,12.72l-3.21,1.73,2.08,2.99,3.78,5.44-9.82,64.38-.2,1.32,.78,1.08c3.33,4.63,6.41,9.69,7.73,12.61-2.78-.28-7.01-1.34-10.84-2.49Z"></path>
      </g>
    </g>
    <path class="cls-2" d="M549.17,891.66c-.06,.47-.12,.94-.18,1.4,0,.04-.01,.08-.02,.12,.03-.23,.09-.68,.13-1.03,.02-.16,.04-.29,.07-.5"></path>
    <path class="cls-2" d="M549.1,892.16c-.04,.35-.1,.8-.13,1.03,0,.04-.01,.07-.02,.11,0-.08,.06-.43,.15-1.13m-3.23-.44l-.16,1.18,3.24,.41,.15-1.15-3.23-.44h0Z"></path>
  </g>
  <g>
    <g>
      <path class="cls-3" d="M144.3,406.97c0-.32,.04-7.87,3.28-15.54,4.39-10.4,12.53-15.9,23.54-15.9,1.54,0,3.18,.11,4.9,.33l1.42,.19,.08,612.91h-33.14s-.07-581.98-.07-581.98Z"></path>
      <path class="cls-2" d="M171.11,377.15c1.48,0,3.03,.1,4.69,.32l.08,609.85h-29.88s-.07-580.35-.07-580.35c0,0,0-29.82,25.19-29.82m0-3.26h0c-22.5,0-28.45,21.64-28.45,33.08l.07,580.35v3.26s3.26,0,3.26,0h29.88s3.26,0,3.26,0v-3.26s-.08-609.85-.08-609.85v-2.86s-2.84-.37-2.84-.37c-1.75-.23-3.47-.35-5.11-.35h0Z"></path>
    </g>
    <path class="cls-2" d="M453.26,991.34c13.74,0,24.88,11.13,24.88,24.88v50.15s-356.39,.04-356.39,.04v-50.15c0-13.74,11.13-24.88,24.87-24.88l306.64-.04"></path>
    <g>
      <path class="cls-3" d="M120.12,1024.46c0-9.27,3.61-17.99,10.16-24.54,6.55-6.55,15.27-10.17,24.54-10.17l290.24-.04c19.14,0,34.71,15.57,34.71,34.7v101.11s-359.64,.04-359.64,.04v-101.11Z"></path>
      <path class="cls-2" d="M445.06,991.34c18.27,0,33.08,14.81,33.08,33.07v99.48s-356.38,.04-356.38,.04v-99.48c-.01-18.27,14.79-33.08,33.06-33.08l290.24-.04h0m0-3.26h0l-290.24,.04c-9.71,0-18.83,3.78-25.69,10.65-6.86,6.86-10.64,15.99-10.64,25.7v99.48s.01,3.26,.01,3.26h3.26s356.39-.05,356.39-.05h3.26s0-3.26,0-3.26v-99.48c-.01-20.03-16.32-36.33-36.35-36.33h0Z"></path>
    </g>
    <circle class="cls-2" cx="300.46" cy="174.57" r="89.46"></circle>
    <g>
      <path class="cls-3" d="M243.17,312.15l-17.51-.29,33.97-44.81c-36.69-16.24-60.28-52.3-60.29-92.46,0-26.96,10.52-52.35,29.64-71.47,19.11-19.12,44.49-29.65,71.45-29.66,55.75,0,101.12,45.35,101.12,101.1,0,40.87-24.19,77.18-61.82,93.09l34.38,44.53h-15.85l10.76,16.55-137.62,.02,11.76-16.6Zm57.28-215.39c-42.9,0-77.81,34.92-77.8,77.83,0,42.9,34.91,77.8,77.81,77.8,20.76,0,40.29-8.11,55.01-22.82,14.71-14.72,22.81-34.25,22.81-55,0-42.9-34.92-77.81-77.83-77.81h0Z"></path>
      <path class="cls-2" d="M300.46,75.09c54.84,0,99.47,44.62,99.48,99.46,0,41.89-26.06,77.75-62.79,92.39l33.65,43.6h-15.54s10.76,16.55,10.76,16.55l-131.46,.02,11.73-16.56-17.38-.29,33.28-43.91c-35.9-15.02-61.21-50.5-61.21-91.79,0-54.85,44.61-99.48,99.46-99.49h.01m0,178.92h.01c43.81,0,79.44-35.65,79.44-79.46,0-43.8-35.64-79.44-79.45-79.44h-.01c-43.81,0-79.44,35.65-79.43,79.46,0,43.8,35.64,79.44,79.44,79.44m0-182.18h-.01c-56.65,0-102.73,46.1-102.73,102.75,0,40.13,23.17,76.22,59.38,93.1l-30.79,40.62-3.88,5.12,6.43,.11,11.2,.18-8.16,11.51-3.65,5.15h6.31s131.46-.02,131.46-.02h6.01s-3.27-5.04-3.27-5.04l-7.48-11.52h9.53s6.64,0,6.64,0l-4.05-5.25-31.07-40.25c37.13-16.58,60.89-52.92,60.88-93.75,0-56.64-46.1-102.73-102.74-102.73h0Zm0,182.18v-3.26c-42,0-76.18-34.17-76.18-76.17,0-20.32,7.93-39.44,22.33-53.85,14.4-14.41,33.53-22.34,53.84-22.35,42.01,0,76.19,34.17,76.2,76.18,0,42.01-34.17,76.19-76.18,76.19v3.26h0Z"></path>
    </g>
    <path class="cls-3" d="M363.46,185.99c-.25,.22-.5,.44-.75,.67,0,0,0-.01,0-.02-.22-.02-.43,.02-.63,.12-1.1,.69-2.21,1.38-3.2,1.99-.88-.39-1.56-.68-2.06-.9-1.9,.93-3.58,1.75-5.16,2.52-2.32-.92-4.05,1.03-6.1,1.07-.19-.37-.37-.74-.65-1.3-1.04,.58-1.97,1.19-2.97,1.63-.58,.26-1.27,.26-1.91,.38-.2-.18-.39-.36-.59-.53-.1,.17-.2,.33-.3,.5-.23-.03-.43,.02-.62,.15-1.02,.63-2.04,1.27-3.01,1.87-.44-.31-.8-.57-1.19-.84-1.63,1.11-3.16,2.17-4.46,3.06-.75-.15-1.27-.26-1.79-.36-.25,.2-.5,.41-.75,.61l.02-.02c-.25,.23-.49,.45-.74,.68l.02-.02c-.24,.23-.47,.45-.7,.68h0s-.02,.02-.02,.02l.02-.02c-.25,.44-.5,.88-.75,1.32-.53-.02-1.05-.03-1.66-.05-.41,.44-.83,.9-1.25,1.36-.88,.89-1.76,1.79-2.63,2.68-.19,0-.39,0-.58-.04-.28-.17-.55-.35-.83-.52,.95-1.02,.78-2.78,2.26-3.46l-.02,.02c.25-.22,.5-.44,.75-.66v.02c.22-.22,.46-.45,.7-.67h0c1.11-.51,1.93-1.24,2.15-2.54,.06-.35,.41-.66,.62-.98,.73-.46,1.46-.93,2.07-1.31,.16-.73,.27-1.25,.39-1.78,.11-.13,.24-.18,.41-.14l.03-.03c.07-.43,.14-.87,.22-1.3,.97-.75,2.61-.78,2.72-2.48,.23-.3,.46-.6,.69-.9,1.52-.65-.1-1.39,.03-1.93,1.03-1.39,1.98-2.68,2.93-3.96,.47-.32,1-.64,.02-.96,.15-.5,.15-1.18,.49-1.46,1.95-1.67,2.73-3.76,2.44-5.61,.87-2.1,1.5-3.62,2.13-5.14-.99-.99,.3-1.78,.23-2.7l.53-.71c.32-.83,.63-1.65,.88-2.28-.21-.95-.38-1.69-.54-2.44,0,0,0,0-.01,0,.43-.59,1-1.12,1.27-1.77,.63-1.53-.18-3-.38-4.49-.05-.13-.04-.25,.03-.37,.27-.53,.53-1.06,.8-1.6,.15-.24,.3-.49,.44-.73,.01-.41,.03-.82,.04-1.32-.52,.25-.89,.43-1.27,.61-.22-.24-.44-.47-.66-.71,1.1-3.82,.94-7.75,1.06-11.66,1.11-.44,.68-1.22,.36-2.24-.62,.83-1.13,1.52-1.64,2.21-.14,.19-.23,.39-.27,.62-.7,1.48-2.58,2.13-2.8,3.95-.81,.5-1.44,1.11-1.4,2.16-.85,1.3-1.69,2.61-2.53,3.89-.48-.71-.89-1.31-1.44-2.13-1.12,2.21-2.12,4.17-3.11,6.13-.38-.39-.75-.78-1.33-1.38-.33,.8-.61,1.48-.89,2.17-.61,1.11-1.22,2.22-1.84,3.36-.27,.02-.6,.05-.94,.07-.24,.17-.48,.34-.73,.52h0s-.01,0-.01,0h0c-1.41,1.56-1.37,3.56-1.62,5.47-.54-.02-1.08-.03-1.76-.05-.31,.98-.6,1.87-.89,2.77-.33,1.04-.65,2.08-.88,2.81-.86,.66-1.52,1.16-2.15,1.64-.07,2.43-.14,4.67-.22,7.05-.41-.21-.67-.34-1.06-.54-.27,.64-.53,1.29-.8,1.95-.12,1.32-.25,2.64-.37,3.96-.91,.85-1.82,1.71-2.69,2.54-.14,1.48-.28,2.89-.42,4.31-.49,.04-.81,.06-1.11,.08-.12,1.81-.25,3.61-.37,5.42-.62,.69-1.24,1.38-1.86,2.08-.05,.45-.11,.9-.16,1.36-.27,.43-.54,.85-.82,1.28-.21,0-.41,.02-.61,.08-.09-.51-.2-1.02-.27-1.53-.05-.39-.03-.78-.04-1.17,.16-.21,.32-.42,.47-.63,.85-.85,1.56-1.75,1.09-3.44,.69-.95,1.6-2.19,2.51-3.43,.02,0,.04,0,.05,0,0-.03,0-.05,0-.08,0,0-.01,.01-.02,.02l-.06,.06c-.16-.91-.32-1.83-.49-2.74h-.01c.37-.5,1.03-1,1.05-1.52,.06-2.25,.43-4.41,1.22-6.52,.07-.18-.02-.45-.1-.64-.17-.39-.38-.77-.45-.9,.58-1.27,1.03-2.28,1.27-2.81-.19-1.47-.32-2.43-.45-3.39,1.45-1.34,.63-2.76,.11-4.18,1.31-1.98,.87-4.02,.06-6.19,1.35-1.13,.83-2.64,.8-4.07,.08-.99-.8-.57-1.22-.82,.02-.21,.04-.42,.06-.63,.19-.45,.38-.91,.57-1.36,.07-.64,.22-1.29,.17-1.92-.02-.29-.44-.55-.68-.82-.04-.23-.08-.45-.13-.68,.03-.24,.05-.48,.08-.72,.11-1.55,.25-3.11,.28-4.67,0-.24-.49-.49-.75-.73-.07-.26-.14-.52-.21-.78,.18-1.77,.37-3.55,.56-5.38-.87,.18-1.44,.3-1.92,.4,.9-2.56,.65-4.96,.54-7.44-.49,.22-.78,.34-1.35,.59,.06-1.91,.11-3.67,.16-5.35-.6-.14-.93-.22-1.27-.29,0-.17-.01-.34-.02-.52-.04-1.83-.07-3.66-.11-5.49l-.28-.67c-.3,.19-.61,.38-.91,.57-.43-.23-.86-.47-1.29-.7,0-.67-.01-1.35-.02-2.02-.13-.49-.26-.98-.4-1.47-.05-.9-.1-1.79-.16-2.69-.14-.48-.29-.97-.43-1.45-.07-1.13-.15-2.26-.22-3.39,.06-.55,.12-1.1,.18-1.62-.25-.15-.43-.25-.61-.36-.11,.01-.21,.03-.54,.06-.02,.59-.04,1.23-.06,1.87-.13,1.12-.27,2.25-.4,3.37-.17,.47-.35,.95-.52,1.42-.06,.69-.13,1.38-.19,2.07-.18,.45-.37,.9-.55,1.36-.14,1.12-.29,2.23-.43,3.35-.56-.03-1.14-.15-1.68-.05-.28,.05-.49,.5-.74,.76-.06,.67-.12,1.34-.19,2.01-.05,.92-.09,1.85-.13,2.77-.01,.17-.03,.33-.05,.5-.2,.1-.42,.17-.65,.19-.25,.26-.7,.51-.72,.78-.08,1.31-.05,2.63-.05,3.95-.12,.17-.25,.34-.37,.51-.32-.13-.63-.26-1.05-.42-.07,2.38-.14,4.57-.21,6.76-.04,.2-.1,.4-.17,.6-.54-.19-1.08-.39-1.76-.63,.21,1.59,.38,2.86,.55,4.12-.06,.74-.12,1.49-.19,2.23-.27,.21-.76,.4-.77,.62-.06,1.32-.02,2.64,0,3.97,.09,.51,.23,1.02,.25,1.53,0,.18-.26,.37-.4,.56-.26,.26-.7,.49-.73,.78-.08,.63,.04,1.28,.08,1.92-.24,.93-.48,1.86-.73,2.79-.11,1.25-.78,2.55,.34,3.68,.03,.14,.02,.27-.03,.4-.86,2.21-1.12,4.43-.17,6.69,.08,.18-.03,.44-.05,.66-.9,1.15-.91,1.84-.05,3.03,0,0-.01,0-.02,0-.23,1.06-.46,2.12-.72,3.31,.37,.9,.78,1.93,1.2,2.94-1.63,2.05-.02,3.81,.22,5.04-.04,1.46-.2,2.29-.06,3.07,.17,.96,.57,1.88,.88,2.82-.2,.46-.4,.91-.6,1.37,.2,.04,.39,.08,.59,.12,0,.95,.36,1.68,1.25,2.1h.03c.23,.44,.45,.9,.68,1.36h-.02c-.23,.45-.45,.91-.79,1.57,.66,.85,1.35,1.74,2.04,2.62h-.01c-.2,.66-.4,1.32-.6,1.97-.03,.24-.05,.48-.08,.72-.19-.08-.38-.12-.58-.12-.23-.62-.45-1.24-.69-1.86-.42-1.12-.58-2.41-1.83-3.03-.02-1.8-.05-3.61-.07-5.41-.39-.09-.78-.18-1.12-.26-.07-1.43-.14-2.67-.21-3.91l-.46-.76c-.05-.94-.87-.68-1.39-.88-.19-.39-.38-.78-.57-1.17-.12-2.08,.47-4.27-.95-6.13-.28,.13-.56,.26-.84,.39-.73-2.72,.86-5.67-.8-8.14-.56-.02-.9-.03-1.24-.04-.2-1.67-.26-3.38-1.16-4.88,.03-.23,0-.45-.11-.67-.17-1.32-1.24-.51-1.86-.78-.05-.44-.1-.89-.15-1.33-.14-.48-.29-.96-.43-1.45-.06-.67-.13-1.34-.19-2-.21-.47-.41-.94-.61-1.4-.62,.22-1.09,.39-1.52,.55-.55-1.43-1.08-2.79-1.6-4.15-.27-.71-.55-1.42-.83-2.17-.57,.36-.94,.59-1.31,.82-.6-.97-1.19-1.95-1.79-2.92-.21-.97-.06-2.1-1.03-2.54-.66,.61-1.26,1.17-1.87,1.72-1.3-3.9-3.73-7.23-5.54-10.87-.11-.21-.61-.23-.93-.33h-.02c-.28-.66-.56-1.34-.95-2.3-.47,1.12-.93,1.87,.15,2.37-.04,2.51-.08,5.02-.12,7.54,.11,.72,.22,1.44,.32,2.16-.03,.86-.05,1.73-.08,2.69-.67-.23-1.15-.4-2.08-.72,.36,1.33,.63,2.37,.91,3.41,.14,.67,.28,1.34,.43,2.02-.42,.16-.84,.32-1.33,.5,.34,.7,.57,1.15,.79,1.6,.32,.96,.63,1.92,.95,2.88-.08,.51-.07,1.05-.27,1.51-.35,.79-.47,1.47,.35,2.03,.43,1.1,.87,2.2,1.3,3.3-.18,.71-.36,1.42-.57,2.26,.58,1.26,1.21,2.65,1.93,4.2-.53,1.45-.17,2.84,1.05,4,0,0,0,0,0,0-.02,.22,.01,.43,.1,.63,.47,.72,.95,1.44,1.42,2.16-1.87,.51-.3,1.32-.18,2.01,.84,1.15,1.67,2.3,2.56,3.53-.19,.39-.42,.85-.61,1.23,.5,2.16,1.82,3.55,3.73,4.43,.05,.43,.09,.87,.14,1.3-.18,.07-.35,.15-.53,.22,.17,.17,.33,.33,.5,.5h0c.9,.9,1.81,1.81,2.71,2.71,.18,.14,.38,.21,.6,.19,0,.54,.02,1.09,.03,1.71,.36,.36,.75,.75,1.14,1.14,.69,.68,1.39,1.36,2.08,2.04,.42,.33,.83,.65,1.33,1.04-1.09,1.04,0,1.41,.68,1.92-.23,.34-.46,.69-.69,1.03-.22,.07-.44,.09-.66,.05-.82-.94-1.64-1.88-2.45-2.82-.47-.9-1.08-1.6-2.23-1.45-.15,.02-.3,.02-.45-.02-.49-.7-.99-1.39-1.48-2.09,0,0,0,0,.01,.01l-.02-.02h0c-.22-.23-.45-.45-.67-.68-.23-.21-.47-.42-.7-.64-.6-.16-1.17-.26-1.42,.52-.22,.05-.42,0-.61-.12-1.1-1.6-2.56-2.71-4.2-3.4-.55,.3-.92,.51-1.2,.67-1.02-.75-1.9-1.4-2.78-2.05-.18-.14-.39-.2-.62-.18-.09-.17-.18-.34-.27-.51-.2,.17-.4,.33-.61,.5-2.02,.3-2.94-1.89-4.82-2.08-.27,.36-.57,.75-.61,.8-2.37,.13-3.9-2.24-6.12-1.24-1.82-1.01-3.55-1.97-5.24-2.91-.59,.37-1.05,.65-1.51,.94-.23-.07-.46-.14-.69-.21-3.22-1.91-5.48-5.33-9.76-6.47,1,2.61,2.51,4.19,4.18,5.71,1.43,1.31,2.72,2.78,4.07,4.18-.27,.19-.54,.39-1.08,.77,1.04,.57,1.73,.95,2.43,1.34,.45,.48,.91,.96,1.36,1.44,.19,.26,.39,.51,.58,.77h0c.23,.25,.47,.51,.7,.77,.4,.22,.8,.44,1.21,.66,.54,.79,1.03,1.63,1.64,2.36,.25,.3,.76,.39,1.15,.57,2.09,2.27,4.41,4.24,7.17,5.66,.53,.24,1.06,.48,1.58,.72,1.57,2.35,4.42,2.99,7.17,4.96,.23,.02,1.22,.13,2.02,.21,.91,.51,1.16,1.78,2.37,1.36,.79,.24,1.59,.5,2.39,.73,.79,.23,1.59,.44,2.39,.66,1.36,.05,2.73,.11,4.09,.16,.23,.03,.46,.05,.69,.08,.22,.03,.44,.08,.65,.14,1.26,.77,1.63,.76,2.82-.02,2.25,.08,4.5,.15,6.76,.23,.1,.23,.2,.46,.3,.68-.53,1.03-1.54,.43-2.3,.67-.86-.3-1.41,.2-2.05,.67-.65,.47-1.44,.73-2.17,1.09-.09,.16-.19,.31-.3,.45,.11-.14,.21-.29,.3-.45-.84,.05-1.69,.09-2.35,.13-.71,.79-1.25,1.39-1.8,1.99-.97,.43-1.94,.86-2.75,1.22-.16,.85-.26,1.38-.37,1.94-.67-.54-1.31-1.18-1.82,.08-.25,.19-.5,.39-.75,.58h0c-.25,.19-.49,.39-.74,.59-1.04,1.41-2.07,2.81-3.11,4.22-.51,.68-.83,1.36,.17,2.26,1.11-.46,2.32-.97,3.53-1.48,.6,.17,1.19,.34,1.99,.57,.87-.51,1.95-1.15,3.02-1.79,1.14-.01,2.34,.31,3.31-.63,1.16-.44,2.32-.87,3.48-1.31,.73-.58,1.46-1.16,2.19-1.74,.44-.29,.88-.59,1.31-.88h.01c.73-.12,1.64,.52,2.13-.55,.61-.06,1.22-.11,1.88-.17,.11-.66,.19-1.17,.27-1.68,.64-.14,1.28-.28,1.84-.41,.18-.42,.31-.73,.44-1.04,.69-.65,1.37-1.31,2.06-1.96,.98-.28,1.96-.57,3.14-.91,.02,1.21,.03,2.08,.05,2.95-.16,.08-.33,.15-.49,.23,.15,.16,.31,.33,.46,.49-.04,.44-.09,.87-.13,1.31-.1,.04-.3,.07-.3,.12-.39,3.41-.77,6.81-1.16,10.22-.08,2.46-.15,4.92-.24,7.65,1.44-.28,2.75,.49,3.91-.29,.07-2.28,.14-4.43,.2-6.58,0-.46,0-.92,0-1.37-.13-.52-.26-1.04-.4-1.56,0-1.55,0-3.09,0-4.64-.09-1.17,.63-2.44-.41-3.5,.08-1.79-.18-3.62,.38-5.57,.97,.61,1.68,1.05,2.38,1.5,.82,.76,1.65,1.51,2.47,2.27,.72,.53,1.44,1.07,2.16,1.6,.73,.82,1.46,1.63,1.93,2.16,1.36,.52,2.34,.9,3.33,1.28,.4,1.54,2.02,1.73,2.63,2.6,.98,.13,1.63,.22,2.27,.3,0,0,0,0,0,0,.24,.22,.48,.45,.72,.67,.78,.75,1.69,.99,2.74,.7,1.55,1.32,3.08,2.72,5.39,1.98,.24,.08,.49,.16,.73,.25l.31,.12h.34c.23,.14,.46,.28,.68,.42,.68,.34,1.36,.68,2.03,1.02,.27-1.04,.04-1.95-.67-2.75-.59-.9-1.19-1.8-1.86-2.83-.03-.47-.08-1.12-.12-1.72-1.36-.9-2.63-1.73-3.9-2.56-.18-.25-.37-.5-.55-.75-.72-.46-1.42-.96-2.17-1.37-.37-.21-1.11-.2-1.18-.44-.44-1.44-1.73-1.41-2.79-1.85-.87-.36-1.91-.57-2.29-1.7-.06-.19-.79-.15-1.21-.21-.85-.15-1.7-.31-2.55-.46,.02-.12,.03-.23,.05-.35,.64-.12,1.27-.24,1.91-.35,.25-.1,.51-.21,.76-.31,1.8,.09,3.59,.17,5.39,.26,.46,.8,.94,.75,1.44,.04,.22-.04,.44-.08,.66-.1,.23-.01,.46-.03,.69-.04,1.36,.03,2.73,.06,4.09,.09,.81-.17,1.62-.33,2.43-.51,.81-.18,1.62-.39,2.43-.58,1.29,.46,1.64-1.07,2.34-1.2,1.18-.05,2.07-.09,2.97-.12,1.3-1.15,2.8-1.72,4.19-2.5,1.35-.76,2.57-1.74,3.85-2.62h0c.39-.02,.78-.05,1.18-.08,.15-.48,.26-.86,.38-1.25,1.16-.37,2.31-.73,3.46-1.1-.07-.13-.15-.26-.22-.39,.97-.79,1.94-1.58,2.91-2.37,.26-.44,.53-.89,.79-1.33,.22-.22,.43-.43,.65-.65,1.87-.26,3.51-.92,4.54-2.39-.13-.49-.22-.79-.3-1.09,1.11-.81,3.02-.33,3.5-2.16-.21-.33-.42-.66-.69-1.09,1.7-1.3,3.4-2.43,4.88-3.81,1.46-1.36,3.36-2.53,3.63-5.31-2.21,1.2-4.24,1.81-5.62,3.53Z"></path>
    <g>
      <path class="cls-3" d="M177.1,396.66c0-37,30.1-67.11,67.09-67.11h111.32c37-.01,67.11,30.09,67.11,67.08l.07,592.28-245.53,.03-.07-592.28Z"></path>
      <path class="cls-2" d="M355.52,331.17c36.16,0,65.47,29.31,65.47,65.46l.07,590.65-242.27,.03-.07-590.65c0-36.16,29.31-65.48,65.46-65.48h111.32s0-.01,0-.01m0-3.26h-111.33c-37.9,.02-68.73,30.86-68.73,68.76l.07,590.65v3.26s3.26,0,3.26,0l242.27-.03h3.26s0-3.26,0-3.26l-.07-590.65c0-37.9-30.84-68.73-68.73-68.73h0Z"></path>
    </g>
  </g>
  <g>
    <path class="cls-2" d="M287.41,287.54h-7.77v23.38h-6.46v-23.38h-7.74v-6.42h21.97v6.42Z"></path>
    <path class="cls-2" d="M313.51,281.12v29.8h-6.43v-11.67h-9.85v11.67h-6.46v-29.8h6.46v11.67h9.85v-11.67h6.43Z"></path>
    <path class="cls-2" d="M325.01,287.28v5.52h9.86v6.46h-9.86v5.25h9.86v6.42h-16.32v-30.07h16.32v6.43h-9.86Z"></path>
  </g>
  <g>
    <path class="cls-2" d="M389.96,451.35v.19c.2,26.41-11.55,52.83-34.24,70.05-12.13,9.39-26.02,14.87-40.31,17.02-44.02,7.04-86.48-21.33-97.04-65.94l-1.18-6.65c0-.39-.19-.59-.19-.98,0-.78-.2-1.56-.2-2.35-.2-.98-.39-2.15-.39-3.32-2.34-28.76,9.39-57.92,33.85-76.7,7.24-5.48,15.06-9.78,23.28-12.72,.39-.2,.78-.2,.98-.39l3.32-.98c.78-.2,1.37-.39,2.15-.59,.78-.19,1.57-.59,2.35-.78h.19c.78-.2,1.57-.2,2.15-.39,.98-.2,2.15-.59,3.13-.59,11.34-2.15,22.5-1.76,33.06,.59,.39,0,.78,.19,1.18,.19,.97,.2,1.96,.59,3.13,.78,.98,.39,2.15,.59,3.32,.98,.2,0,.39,.2,.59,.2,2.94,.98,5.87,1.96,8.81,3.52,10.76,4.89,20.54,11.94,28.57,20.74l-20.55,19.57-10.57,10.17c-8.22-9.39-20.15-15.06-32.87-15.06-3.92,0-7.83,.59-11.75,1.76-.39,.19-.97,.19-1.37,.39-.78,.2-1.56,.59-2.34,.78h-.2c-3.72,1.57-7.24,3.52-10.57,6.07-19.37,14.87-23.09,42.65-8.22,62.02,9.98,13.11,25.83,18.98,40.89,17.02,1.18-.19,2.35-.39,3.52-.78,9.98-2.35,18.2-8.02,24.07-15.65h-30.92v-32.87h84.33v4.7Z"></path>
    <path class="cls-2" d="M387.42,746.15h-39.52l-14.09-44.22h-57.52l-14.29,44.22h-39.32l56.74-176.09h51.27l56.74,176.09Zm-65.74-81.79l-16.63-51.46-16.64,51.46h33.27Z"></path>
    <path class="cls-2" d="M304.76,955.64c-20.15,0-41.67-7.82-62.61-23.28l22.5-30.13c21.92,16.24,43.44,20.15,57.53,10.76,6.65-4.5,10.17-11.35,8.8-16.63-1.76-6.65-11.74-11.54-26.22-12.72l-2.55-.19c-45-3.91-56.54-29.74-59.28-40.7-5.48-20.94,4.11-43.83,24.06-57.33,27.98-18.78,65.74-14.28,100.96,11.74l-22.5,30.32c-21.91-16.43-43.43-20.35-57.52-10.96-6.46,4.5-10.17,11.35-8.8,16.83,1.76,6.46,11.94,11.35,26.22,12.52l2.54,.39c45.01,3.72,56.55,29.54,59.48,40.5,5.28,20.94-4.31,44.02-24.26,57.33-11.35,7.63-24.46,11.54-38.35,11.54Z"></path>
  </g>
  <g>
    <path class="cls-2" d="M175.48,1058.42c-5.86,0-12.12-2.28-18.21-6.77l6.54-8.76c6.37,4.72,12.63,5.86,16.73,3.13,1.93-1.31,2.96-3.3,2.56-4.84-.51-1.93-3.41-3.36-7.62-3.7l-.74-.06c-13.09-1.14-16.44-8.65-17.24-11.84-1.59-6.09,1.2-12.74,7-16.67,8.14-5.46,19.12-4.15,29.36,3.41l-6.54,8.82c-6.37-4.78-12.63-5.92-16.73-3.19-1.88,1.31-2.96,3.3-2.56,4.89,.51,1.88,3.47,3.3,7.62,3.64l.74,.11c13.09,1.08,16.44,8.59,17.3,11.78,1.53,6.09-1.25,12.8-7.06,16.67-3.3,2.22-7.11,3.36-11.15,3.36Z"></path>
    <path class="cls-2" d="M234.1,1018.6h-13.14v39.54h-10.92v-39.54h-13.09v-10.87h37.15v10.87Z"></path>
    <path class="cls-2" d="M284.86,1058.19h-11.49l-4.1-12.86h-16.73l-4.15,12.86h-11.44l16.5-51.21h14.91l16.5,51.21Zm-19.12-23.78l-4.83-14.97-4.84,14.97h9.67Z"></path>
    <path class="cls-2" d="M324.88,1018.6h-13.14v39.54h-10.92v-39.54h-13.09v-10.87h37.15v10.87Z"></path>
    <path class="cls-2" d="M333.43,1007.73h10.92v50.41h-10.92v-50.41Z"></path>
    <path class="cls-2" d="M400.8,1032.71c0,14-11.38,25.38-25.37,25.38s-25.38-11.38-25.38-25.38,11.38-25.37,25.38-25.37,25.37,11.38,25.37,25.37Zm-11.26,0c0-7.79-6.31-14.11-14.11-14.11s-14.11,6.31-14.11,14.11,6.31,14.11,14.11,14.11,14.11-6.32,14.11-14.11Z"></path>
    <path class="cls-2" d="M445.82,1058.14s-.57,0-.57,.06h-12.34l-15.48-28.73v28.68h-10.92v-50.92h11.32l17.13,31.75v-31.69h10.86v50.86Z"></path>
  </g>
  <g>
    <path class="cls-2" d="M191.06,1086.8c0,9.26-6.4,16.76-14.61,16.76h-13.18v-33.48h13.18c8.21,0,14.61,7.46,14.61,16.72Zm-8.17,0c0-4.97-3.2-8.92-7.49-8.92h-4.63v17.47h4.63c4.29,0,7.49-3.92,7.49-8.55Z"></path>
    <path class="cls-2" d="M196.35,1070.01h7.23v33.37h-7.23v-33.37Z"></path>
    <path class="cls-2" d="M219.54,1103.56c-3.88,0-8.02-1.5-12.05-4.48l4.33-5.8c4.22,3.13,8.36,3.88,11.07,2.07,1.28-.87,1.96-2.18,1.69-3.2-.34-1.28-2.26-2.22-5.05-2.45l-.49-.04c-8.66-.75-10.88-5.72-11.41-7.83-1.05-4.03,.79-8.44,4.63-11.04,5.38-3.61,12.65-2.75,19.43,2.26l-4.33,5.84c-4.22-3.16-8.36-3.92-11.07-2.11-1.24,.87-1.96,2.19-1.69,3.24,.34,1.24,2.3,2.19,5.05,2.41l.49,.08c8.66,.72,10.88,5.69,11.45,7.79,1.02,4.03-.83,8.47-4.67,11.03-2.18,1.47-4.7,2.22-7.38,2.22Z"></path>
    <path class="cls-2" d="M242.83,1103.37h-7.23v-33.89h11.18c7.12,0,12.96,5.12,12.96,11.41,0,4.86-3.47,9-8.32,10.66-3.24,1.43-8.58,.75-8.58,.75v11.07Zm0-17.96h4.41c2.86,0,5.16-2.03,5.16-4.52s-2.3-4.52-5.16-4.52h-4.41v9.04Z"></path>
    <path class="cls-2" d="M272.6,1076.9v6.18h11.03v7.23h-11.03v5.87h11.03v7.2h-18.26v-33.67h18.26v7.19h-11.03Z"></path>
    <path class="cls-2" d="M315.28,1103.37s-.38,0-.38,.04h-8.17l-10.24-19.02v18.98h-7.23v-33.71h7.5l11.33,21.01v-20.97h7.19v33.67Z"></path>
    <path class="cls-2" d="M331.23,1103.56c-3.88,0-8.02-1.5-12.05-4.48l4.33-5.8c4.22,3.13,8.36,3.88,11.07,2.07,1.28-.87,1.96-2.18,1.69-3.2-.34-1.28-2.26-2.22-5.04-2.45l-.49-.04c-8.66-.75-10.88-5.72-11.41-7.83-1.06-4.03,.79-8.44,4.63-11.04,5.38-3.61,12.65-2.75,19.43,2.26l-4.33,5.84c-4.22-3.16-8.36-3.92-11.07-2.11-1.24,.87-1.96,2.19-1.69,3.24,.34,1.24,2.3,2.19,5.04,2.41l.49,.08c8.66,.72,10.88,5.69,11.45,7.79,1.02,4.03-.83,8.47-4.67,11.03-2.19,1.47-4.71,2.22-7.38,2.22Z"></path>
    <path class="cls-2" d="M378.99,1103.41h-7.61l-2.71-8.51h-11.07l-2.75,8.51h-7.57l10.92-33.89h9.86l10.92,33.89Zm-12.65-15.74l-3.2-9.9-3.2,9.9h6.4Z"></path>
    <path class="cls-2" d="M398.59,1103.37s-8.59-11.07-8.63-11.07v11.07h-7.23v-33.89h11.19c7.11,0,12.95,5.12,12.95,11.41,0,4.86-3.46,9-8.32,10.66l9.15,11.83h-9.11Zm-8.63-17.96h4.41c2.86,0,5.16-2.03,5.16-4.52s-2.3-4.52-5.16-4.52h-4.41v9.04Z"></path>
    <path class="cls-2" d="M439.65,1069.7l-10.21,16.72-.72,1.21v15.74h-7.23v-15.48l-.72-1.09-11.22-17.09h8.89l6.63,10.05,6.14-10.05h8.44Z"></path>
  </g>
</svg>
